<svg xmlns="http://www.w3.org/2000/svg" xmlns:xlink="http://www.w3.org/1999/xlink" width="500" zoomAndPan="magnify" viewBox="0 0 375 374.999991" height="500" preserveAspectRatio="xMidYMid meet" version="1.0"><defs><clipPath id="67f0995571"><path d="M 33.363281 37.5 L 341.636719 37.5 L 341.636719 345.773438 L 33.363281 345.773438 Z M 33.363281 37.5 " clip-rule="nonzero"/></clipPath><clipPath id="8bed3b47fc"><path d="M 50.613281 37.5 L 324.386719 37.5 C 333.914062 37.5 341.636719 45.222656 341.636719 54.75 L 341.636719 328.523438 C 341.636719 338.050781 333.914062 345.773438 324.386719 345.773438 L 50.613281 345.773438 C 41.085938 345.773438 33.363281 338.050781 33.363281 328.523438 L 33.363281 54.75 C 33.363281 45.222656 41.085938 37.5 50.613281 37.5 " clip-rule="nonzero"/></clipPath><clipPath id="61c9b0c7bb"><path d="M 63.996094 72.398438 L 310.746094 72.398438 L 310.746094 310.898438 L 63.996094 310.898438 Z M 63.996094 72.398438 " clip-rule="nonzero"/></clipPath></defs><g clip-path="url(#67f0995571)"><g clip-path="url(#8bed3b47fc)"><path fill="#000000" d="M 33.363281 37.5 L 341.636719 37.5 L 341.636719 345.773438 L 33.363281 345.773438 Z M 33.363281 37.5 " fill-opacity="1" fill-rule="nonzero"/></g></g><g clip-path="url(#61c9b0c7bb)"><path fill="#ffbf00" d="M 121.941406 287.503906 L 121.941406 287.523438 C 121.941406 294.027344 119.566406 299.890625 115.734375 304.109375 C 111.996094 308.222656 106.851562 310.765625 101.191406 310.765625 C 95.535156 310.765625 90.386719 308.222656 86.648438 304.109375 C 82.808594 299.890625 80.441406 294.027344 80.441406 287.523438 C 80.441406 287.515625 80.441406 287.507812 80.441406 287.503906 C 80.441406 286.550781 81.222656 285.78125 82.175781 285.78125 L 120.226562 285.78125 C 121.175781 285.78125 121.941406 286.550781 121.941406 287.503906 Z M 296.765625 291.785156 L 284.535156 291.882812 L 259.390625 291.777344 C 258.492188 291.773438 257.8125 292.613281 258.023438 293.488281 C 258.992188 297.585938 260.921875 301.230469 263.542969 304.109375 C 267.285156 308.222656 272.429688 310.765625 278.085938 310.765625 C 283.746094 310.765625 288.890625 308.222656 292.632812 304.109375 C 295.246094 301.230469 297.183594 297.585938 298.152344 293.496094 C 298.351562 292.617188 297.664062 291.777344 296.765625 291.785156 Z M 278.082031 242.371094 C 280.113281 242.371094 282.097656 242.53125 284.046875 242.835938 C 286.101562 243.15625 287.953125 241.542969 287.953125 239.460938 L 287.953125 197.214844 C 287.953125 196.027344 287.535156 194.964844 286.855469 194.21875 C 286.277344 193.582031 285.5 193.179688 284.671875 193.179688 L 240.027344 193.179688 C 238.148438 193.179688 236.625 194.707031 236.625 196.589844 L 236.625 259.433594 C 236.625 261.78125 234.722656 263.683594 232.378906 263.683594 L 67.402344 263.683594 C 65.519531 263.691406 63.996094 265.214844 63.996094 267.105469 L 63.996094 273.257812 C 63.996094 274.445312 64.417969 275.507812 65.09375 276.253906 C 65.675781 276.890625 66.453125 277.292969 67.28125 277.292969 L 235.039062 277.292969 C 236.59375 277.292969 237.929688 276.234375 238.332031 274.734375 C 240.292969 267.476562 243.890625 260.976562 248.648438 255.75 C 256.164062 247.480469 266.566406 242.371094 278.082031 242.371094 Z M 310.683594 282.234375 C 309.636719 274.152344 306.222656 266.925781 301.246094 261.453125 C 295.304688 254.910156 287.109375 250.867188 278.082031 250.867188 C 269.054688 250.867188 260.867188 254.910156 254.917969 261.453125 C 249.996094 266.871094 246.59375 274 245.507812 281.976562 C 245.503906 282.0625 245.488281 282.140625 245.476562 282.222656 C 245.476562 282.226562 245.476562 282.226562 245.476562 282.234375 C 245.402344 282.785156 245.839844 283.273438 246.402344 283.273438 L 309.773438 283.273438 C 310.320312 283.273438 310.757812 282.785156 310.683594 282.234375 Z M 66.804688 255.195312 L 121.601562 255.195312 C 123.152344 255.195312 124.410156 253.9375 124.410156 252.386719 L 124.410156 228.335938 C 124.410156 227.550781 124.082031 226.796875 123.503906 226.265625 L 101.320312 205.808594 C 100.414062 204.972656 99.953125 203.832031 99.953125 202.6875 L 99.953125 195.886719 C 99.953125 194.335938 98.691406 193.078125 97.144531 193.078125 L 66.804688 193.078125 C 65.253906 193.078125 63.996094 194.335938 63.996094 195.886719 L 63.996094 252.378906 C 63.996094 253.9375 65.253906 255.195312 66.804688 255.195312 Z M 66.976562 184.582031 L 96.976562 184.582031 C 98.625 184.582031 99.957031 183.25 99.957031 181.597656 L 99.953125 152.820312 C 99.953125 151.167969 98.617188 149.835938 96.972656 149.835938 L 66.976562 149.835938 C 65.328125 149.835938 63.996094 151.167969 63.996094 152.820312 L 63.996094 181.597656 C 63.996094 183.25 65.328125 184.582031 66.976562 184.582031 Z M 67.730469 141.351562 L 80.570312 141.414062 L 96.210938 141.351562 C 98.277344 141.347656 99.953125 139.667969 99.945312 137.597656 L 99.945312 122.667969 C 99.945312 120.320312 101.84375 118.417969 104.191406 118.417969 L 267.84375 118.417969 C 269.417969 118.417969 270.878906 117.683594 271.953125 116.496094 C 273.125 115.203125 273.855469 113.402344 273.855469 111.382812 C 273.855469 109.367188 273.125 107.558594 271.953125 106.265625 C 270.878906 105.085938 269.425781 104.34375 267.84375 104.34375 L 87.34375 104.34375 C 81.003906 104.34375 75.207031 107.222656 70.992188 111.863281 C 66.675781 116.621094 63.996094 123.199219 63.996094 130.457031 L 63.996094 137.605469 C 63.996094 139.667969 65.664062 141.347656 67.730469 141.351562 Z M 136.140625 255.195312 L 145.636719 255.195312 C 147.425781 255.195312 148.875 253.746094 148.875 251.953125 L 148.875 228.527344 C 148.875 227.621094 148.5 226.753906 147.832031 226.144531 L 125.988281 206 C 125.027344 205.222656 124.410156 204.027344 124.410156 202.695312 L 124.410156 130.160156 C 124.410156 128.367188 122.960938 126.917969 121.171875 126.917969 L 111.664062 126.917969 C 109.878906 126.917969 108.429688 128.363281 108.421875 130.152344 L 108.398438 139.105469 L 108.429688 145.589844 L 108.429688 199.421875 C 108.429688 200.328125 108.804688 201.195312 109.472656 201.804688 L 131.316406 221.941406 C 132.277344 222.722656 132.894531 223.914062 132.894531 225.25 L 132.894531 251.945312 C 132.902344 253.746094 134.351562 255.195312 136.140625 255.195312 Z M 192.234375 221.003906 C 193.398438 221.003906 194.34375 220.058594 194.34375 218.890625 L 194.34375 185.539062 C 194.34375 184.304688 193.90625 183.199219 193.195312 182.421875 C 192.585938 181.746094 191.769531 181.328125 190.902344 181.328125 L 188.921875 181.328125 C 187.753906 181.328125 186.808594 182.273438 186.808594 183.441406 L 186.808594 218.890625 C 186.808594 220.058594 187.753906 221.003906 188.921875 221.003906 Z M 186.804688 252.730469 C 186.804688 254.089844 187.902344 255.191406 189.261719 255.191406 L 204.914062 255.191406 C 206.273438 255.191406 207.371094 254.089844 207.371094 252.730469 L 207.371094 231.957031 C 207.371094 230.597656 206.273438 229.5 204.914062 229.5 L 189.261719 229.5 C 187.902344 229.5 186.804688 230.597656 186.804688 231.957031 Z M 244.933594 169.769531 C 241.023438 166.648438 237.769531 162.320312 236.125 157.542969 L 226.246094 128.863281 C 225.84375 127.703125 224.75 126.917969 223.523438 126.917969 L 220.230469 126.917969 C 218.261719 126.917969 216.871094 128.84375 217.496094 130.710938 L 234.765625 182.71875 C 235.15625 183.898438 236.257812 184.695312 237.5 184.695312 L 279.996094 184.695312 C 281.960938 184.695312 283.351562 182.765625 282.726562 180.902344 L 281.417969 176.953125 C 281.03125 175.773438 279.925781 174.976562 278.6875 174.976562 L 258.398438 174.976562 C 253.769531 174.976562 248.957031 172.980469 244.933594 169.769531 Z M 230.019531 95.855469 L 237.308594 95.855469 C 240.171875 95.855469 242.089844 92.910156 240.9375 90.285156 L 234.144531 74.886719 C 233.507812 73.445312 232.082031 72.519531 230.515625 72.519531 L 230.019531 72.519531 C 227.832031 72.519531 226.054688 74.296875 226.054688 76.492188 L 226.054688 91.890625 C 226.054688 94.085938 227.832031 95.855469 230.019531 95.855469 Z M 172.925781 126.917969 C 171.738281 126.917969 170.773438 127.878906 170.773438 129.074219 L 170.773438 253.035156 C 170.773438 254.226562 171.738281 255.191406 172.925781 255.191406 L 177.105469 255.191406 C 178.296875 255.191406 179.257812 254.226562 179.257812 253.035156 L 179.257812 129.074219 C 179.257812 127.878906 178.296875 126.917969 177.105469 126.917969 Z M 172.925781 126.917969 " fill-opacity="1" fill-rule="evenodd"/></g></svg>