<svg xmlns="http://www.w3.org/2000/svg" xmlns:xlink="http://www.w3.org/1999/xlink" width="300" zoomAndPan="magnify" viewBox="0 0 224.87999 74.999997" height="100" preserveAspectRatio="xMidYMid meet" version="1.0"><defs><g/><clipPath id="f0dfd5c52b"><path d="M 190 49 L 208 49 L 208 57 L 190 57 Z M 190 49 " clip-rule="nonzero"/></clipPath><clipPath id="9b6fe1e31b"><path d="M 186.777344 30.742188 L 209.039062 53.003906 L 186.777344 75.265625 L 164.515625 53.003906 Z M 186.777344 30.742188 " clip-rule="nonzero"/></clipPath><clipPath id="84413b241a"><path d="M 186.777344 30.742188 L 209.039062 53.003906 L 186.777344 75.265625 L 164.515625 53.003906 Z M 186.777344 30.742188 " clip-rule="nonzero"/></clipPath><clipPath id="08b9132802"><path d="M 186.777344 30.742188 L 209.039062 53.003906 L 186.777344 75.265625 L 164.515625 53.003906 Z M 186.777344 30.742188 " clip-rule="nonzero"/></clipPath><clipPath id="b80f4183ad"><path d="M 190 48 L 209 48 L 209 57 L 190 57 Z M 190 48 " clip-rule="nonzero"/></clipPath><clipPath id="09cb9eac7e"><path d="M 186.777344 30.742188 L 209.039062 53.003906 L 186.777344 75.265625 L 164.515625 53.003906 Z M 186.777344 30.742188 " clip-rule="nonzero"/></clipPath><clipPath id="32aacb02b8"><path d="M 186.777344 30.742188 L 209.039062 53.003906 L 186.777344 75.265625 L 164.515625 53.003906 Z M 186.777344 30.742188 " clip-rule="nonzero"/></clipPath><clipPath id="a89f9865a5"><path d="M 186.777344 30.742188 L 209.039062 53.003906 L 186.777344 75.265625 L 164.515625 53.003906 Z M 186.777344 30.742188 " clip-rule="nonzero"/></clipPath><clipPath id="d54e8fa59c"><path d="M 185 55 L 190 55 L 190 57 L 185 57 Z M 185 55 " clip-rule="nonzero"/></clipPath><clipPath id="b61ce5a15b"><path d="M 186.777344 30.742188 L 209.039062 53.003906 L 186.777344 75.265625 L 164.515625 53.003906 Z M 186.777344 30.742188 " clip-rule="nonzero"/></clipPath><clipPath id="1afc1dc760"><path d="M 186.777344 30.742188 L 209.039062 53.003906 L 186.777344 75.265625 L 164.515625 53.003906 Z M 186.777344 30.742188 " clip-rule="nonzero"/></clipPath><clipPath id="75d6c9426e"><path d="M 186.777344 30.742188 L 209.039062 53.003906 L 186.777344 75.265625 L 164.515625 53.003906 Z M 186.777344 30.742188 " clip-rule="nonzero"/></clipPath><clipPath id="58dcd69fd4"><path d="M 170 49 L 175 49 L 175 51 L 170 51 Z M 170 49 " clip-rule="nonzero"/></clipPath><clipPath id="7b9a650b89"><path d="M 186.777344 30.742188 L 209.039062 53.003906 L 186.777344 75.265625 L 164.515625 53.003906 Z M 186.777344 30.742188 " clip-rule="nonzero"/></clipPath><clipPath id="a27ab18e1f"><path d="M 186.777344 30.742188 L 209.039062 53.003906 L 186.777344 75.265625 L 164.515625 53.003906 Z M 186.777344 30.742188 " clip-rule="nonzero"/></clipPath><clipPath id="917deac54b"><path d="M 186.777344 30.742188 L 209.039062 53.003906 L 186.777344 75.265625 L 164.515625 53.003906 Z M 186.777344 30.742188 " clip-rule="nonzero"/></clipPath><clipPath id="27ecdf54b5"><path d="M 175 49 L 190 49 L 190 51 L 175 51 Z M 175 49 " clip-rule="nonzero"/></clipPath><clipPath id="845cad0a5d"><path d="M 186.777344 30.742188 L 209.039062 53.003906 L 186.777344 75.265625 L 164.515625 53.003906 Z M 186.777344 30.742188 " clip-rule="nonzero"/></clipPath><clipPath id="5c9b465f58"><path d="M 186.777344 30.742188 L 209.039062 53.003906 L 186.777344 75.265625 L 164.515625 53.003906 Z M 186.777344 30.742188 " clip-rule="nonzero"/></clipPath><clipPath id="831c32ca72"><path d="M 186.777344 30.742188 L 209.039062 53.003906 L 186.777344 75.265625 L 164.515625 53.003906 Z M 186.777344 30.742188 " clip-rule="nonzero"/></clipPath><clipPath id="8c15ad3c8b"><path d="M 181 52 L 190 52 L 190 54 L 181 54 Z M 181 52 " clip-rule="nonzero"/></clipPath><clipPath id="e035365969"><path d="M 186.777344 30.742188 L 209.039062 53.003906 L 186.777344 75.265625 L 164.515625 53.003906 Z M 186.777344 30.742188 " clip-rule="nonzero"/></clipPath><clipPath id="16b8806364"><path d="M 186.777344 30.742188 L 209.039062 53.003906 L 186.777344 75.265625 L 164.515625 53.003906 Z M 186.777344 30.742188 " clip-rule="nonzero"/></clipPath><clipPath id="bf273802ef"><path d="M 186.777344 30.742188 L 209.039062 53.003906 L 186.777344 75.265625 L 164.515625 53.003906 Z M 186.777344 30.742188 " clip-rule="nonzero"/></clipPath><clipPath id="d1475e9992"><path d="M 164 52 L 181 52 L 181 54 L 164 54 Z M 164 52 " clip-rule="nonzero"/></clipPath><clipPath id="f03d1bac0e"><path d="M 186.777344 30.742188 L 209.039062 53.003906 L 186.777344 75.265625 L 164.515625 53.003906 Z M 186.777344 30.742188 " clip-rule="nonzero"/></clipPath><clipPath id="1f4c127666"><path d="M 186.777344 30.742188 L 209.039062 53.003906 L 186.777344 75.265625 L 164.515625 53.003906 Z M 186.777344 30.742188 " clip-rule="nonzero"/></clipPath><clipPath id="0a009bc267"><path d="M 186.777344 30.742188 L 209.039062 53.003906 L 186.777344 75.265625 L 164.515625 53.003906 Z M 186.777344 30.742188 " clip-rule="nonzero"/></clipPath><clipPath id="ef9be5af8b"><path d="M 173 55 L 186 55 L 186 57 L 173 57 Z M 173 55 " clip-rule="nonzero"/></clipPath><clipPath id="f34d6589ab"><path d="M 186.777344 30.742188 L 209.039062 53.003906 L 186.777344 75.265625 L 164.515625 53.003906 Z M 186.777344 30.742188 " clip-rule="nonzero"/></clipPath><clipPath id="02798b6abe"><path d="M 186.777344 30.742188 L 209.039062 53.003906 L 186.777344 75.265625 L 164.515625 53.003906 Z M 186.777344 30.742188 " clip-rule="nonzero"/></clipPath><clipPath id="6684666479"><path d="M 186.777344 30.742188 L 209.039062 53.003906 L 186.777344 75.265625 L 164.515625 53.003906 Z M 186.777344 30.742188 " clip-rule="nonzero"/></clipPath></defs><g clip-path="url(#f0dfd5c52b)"><g clip-path="url(#9b6fe1e31b)"><g clip-path="url(#84413b241a)"><g clip-path="url(#08b9132802)"><path fill="#fc6e51" d="M 205.273438 51.542969 L 199.199219 49.945312 L 190.996094 49.65625 L 191.335938 55.996094 L 196.875 56.277344 L 200.796875 55.632812 L 207.929688 52.9375 Z M 205.273438 51.542969 " fill-opacity="1" fill-rule="nonzero"/></g></g></g></g><g clip-path="url(#b80f4183ad)"><g clip-path="url(#09cb9eac7e)"><g clip-path="url(#32aacb02b8)"><g clip-path="url(#a89f9865a5)"><path fill="#000000" d="M 208.574219 52.878906 C 208.574219 52.652344 208.476562 52.441406 208.28125 52.246094 C 207.648438 51.613281 205.53125 50.769531 203.90625 50.238281 C 202.476562 49.773438 199.738281 48.988281 197.488281 48.996094 L 190.957031 49.023438 C 190.78125 49.027344 190.617188 49.09375 190.492188 49.21875 C 190.371094 49.339844 190.300781 49.507812 190.300781 49.679688 L 190.273438 56.164062 C 190.273438 56.339844 190.339844 56.503906 190.460938 56.625 C 190.582031 56.746094 190.75 56.816406 190.921875 56.816406 L 197.453125 56.785156 C 198.917969 56.78125 201.722656 56.046875 203.859375 55.367188 C 205.035156 54.992188 206.117188 54.597656 206.90625 54.257812 C 208.007812 53.785156 208.570312 53.441406 208.574219 52.878906 Z M 203.054688 54.253906 C 200.625 55.007812 198.480469 55.476562 197.460938 55.480469 L 191.582031 55.503906 L 191.59375 52.285156 L 197.46875 52.257812 C 197.828125 52.257812 198.121094 51.964844 198.125 51.601562 C 198.125 51.242188 197.835938 50.949219 197.472656 50.953125 L 191.601562 50.976562 L 191.605469 50.328125 L 197.480469 50.304688 C 198.992188 50.296875 201.183594 50.726562 203.492188 51.480469 C 205.058594 51.992188 206.222656 52.503906 206.859375 52.851562 C 206.171875 53.179688 204.871094 53.691406 203.054688 54.253906 Z M 203.054688 54.253906 " fill-opacity="1" fill-rule="nonzero"/></g></g></g></g><g clip-path="url(#d54e8fa59c)"><g clip-path="url(#b61ce5a15b)"><g clip-path="url(#1afc1dc760)"><g clip-path="url(#75d6c9426e)"><path fill="#000000" d="M 189.035156 55.535156 L 186.265625 55.546875 C 185.90625 55.546875 185.613281 55.84375 185.609375 56.203125 C 185.609375 56.382812 185.679688 56.546875 185.800781 56.664062 C 185.917969 56.78125 186.082031 56.851562 186.261719 56.851562 L 189.03125 56.839844 C 189.390625 56.839844 189.6875 56.542969 189.6875 56.183594 C 189.6875 55.824219 189.398438 55.535156 189.035156 55.535156 Z M 189.035156 55.535156 " fill-opacity="1" fill-rule="nonzero"/></g></g></g></g><g clip-path="url(#58dcd69fd4)"><g clip-path="url(#7b9a650b89)"><g clip-path="url(#a27ab18e1f)"><g clip-path="url(#917deac54b)"><path fill="#000000" d="M 171.050781 50.265625 C 171.167969 50.382812 171.332031 50.457031 171.511719 50.457031 L 174.285156 50.441406 C 174.644531 50.441406 174.9375 50.148438 174.9375 49.789062 C 174.941406 49.425781 174.648438 49.136719 174.289062 49.136719 L 171.515625 49.148438 C 171.15625 49.152344 170.863281 49.445312 170.859375 49.804688 C 170.859375 49.984375 170.933594 50.148438 171.050781 50.265625 Z M 171.050781 50.265625 " fill-opacity="1" fill-rule="nonzero"/></g></g></g></g><g clip-path="url(#27ecdf54b5)"><g clip-path="url(#845cad0a5d)"><g clip-path="url(#5c9b465f58)"><g clip-path="url(#831c32ca72)"><path fill="#000000" d="M 175.660156 50.246094 C 175.777344 50.363281 175.941406 50.4375 176.121094 50.433594 L 189.054688 50.378906 C 189.414062 50.378906 189.710938 50.085938 189.710938 49.722656 C 189.710938 49.363281 189.421875 49.070312 189.058594 49.074219 L 176.128906 49.128906 C 175.765625 49.128906 175.472656 49.425781 175.472656 49.785156 C 175.472656 49.964844 175.542969 50.128906 175.660156 50.246094 Z M 175.660156 50.246094 " fill-opacity="1" fill-rule="nonzero"/></g></g></g></g><g clip-path="url(#8c15ad3c8b)"><g clip-path="url(#e035365969)"><g clip-path="url(#16b8806364)"><g clip-path="url(#bf273802ef)"><path fill="#000000" d="M 181.46875 52.988281 C 181.464844 53.167969 181.539062 53.332031 181.65625 53.449219 C 181.773438 53.566406 181.9375 53.640625 182.117188 53.636719 L 188.578125 53.609375 C 188.9375 53.609375 189.234375 53.316406 189.234375 52.953125 C 189.234375 52.59375 188.945312 52.304688 188.582031 52.304688 L 182.125 52.332031 C 181.761719 52.332031 181.46875 52.625 181.46875 52.988281 Z M 181.46875 52.988281 " fill-opacity="1" fill-rule="nonzero"/></g></g></g></g><g clip-path="url(#d1475e9992)"><g clip-path="url(#f03d1bac0e)"><g clip-path="url(#1f4c127666)"><g clip-path="url(#0a009bc267)"><path fill="#000000" d="M 180.925781 52.988281 C 180.925781 52.628906 180.636719 52.335938 180.277344 52.339844 L 165.5 52.402344 C 165.136719 52.40625 164.84375 52.699219 164.84375 53.058594 C 164.84375 53.238281 164.914062 53.402344 165.03125 53.519531 C 165.148438 53.636719 165.3125 53.710938 165.496094 53.710938 L 180.269531 53.644531 C 180.628906 53.644531 180.921875 53.351562 180.925781 52.988281 Z M 180.925781 52.988281 " fill-opacity="1" fill-rule="nonzero"/></g></g></g></g><g clip-path="url(#ef9be5af8b)"><g clip-path="url(#f34d6589ab)"><g clip-path="url(#02798b6abe)"><g clip-path="url(#6684666479)"><path fill="#000000" d="M 184.417969 55.554688 L 174.261719 55.597656 C 173.898438 55.597656 173.605469 55.894531 173.605469 56.253906 C 173.601562 56.433594 173.675781 56.597656 173.792969 56.714844 C 173.910156 56.832031 174.074219 56.90625 174.253906 56.902344 L 184.414062 56.859375 C 184.773438 56.859375 185.066406 56.566406 185.070312 56.207031 C 185.070312 55.84375 184.78125 55.550781 184.417969 55.554688 Z M 184.417969 55.554688 " fill-opacity="1" fill-rule="nonzero"/></g></g></g></g><g fill="#000000" fill-opacity="1"><g transform="translate(0.000000000000010652, 61.144839)"><g><path d="M 26.625 -39.691406 C 25.992188 -42.171875 24.679688 -43.871094 22.542969 -45.085938 C 21.375 -45.765625 20.113281 -46.105469 18.753906 -46.105469 C 17.394531 -46.105469 16.128906 -45.765625 15.011719 -45.085938 C 12.875 -43.871094 11.515625 -42.171875 10.929688 -39.691406 L 0.339844 -0.292969 C 5.828125 1.019531 11.222656 -1.941406 12.484375 -6.949219 L 13.019531 -9.132812 L 13.214844 -10.25 L 24.292969 -10.25 L 24.535156 -9.132812 L 25.070312 -6.949219 C 26.285156 -1.941406 31.726562 1.019531 37.167969 -0.292969 Z M 22.589844 -18.414062 L 14.914062 -18.414062 L 18.753906 -33.183594 Z M 22.589844 -18.414062 "/></g></g></g><g fill="#000000" fill-opacity="1"><g transform="translate(37.747459, 61.144839)"><g><path d="M 29.925781 -44.113281 C 26.476562 -42.460938 24.097656 -39.160156 24.097656 -35.320312 L 24.097656 -10.785156 C 24.097656 -9.375 22.980469 -8.160156 21.523438 -8.113281 C 21.523438 -8.113281 21.523438 -8.113281 21.472656 -8.113281 L 15.933594 -8.113281 C 15.15625 -8.113281 14.527344 -8.355469 14.089844 -8.792969 C 13.554688 -9.28125 13.261719 -9.960938 13.261719 -10.6875 L 13.261719 -35.320312 C 13.261719 -39.0625 10.980469 -42.363281 7.628906 -44.015625 C 6.074219 -44.792969 4.324219 -45.28125 2.429688 -45.28125 L 2.429688 -9.035156 C 2.429688 -6.460938 3.496094 -4.082031 5.296875 -2.332031 C 5.488281 -2.136719 5.683594 -1.941406 5.925781 -1.75 C 7.726562 0.046875 10.300781 0.921875 13.117188 1.164062 C 14.722656 1.3125 16.519531 1.410156 18.363281 1.410156 C 18.800781 1.410156 19.335938 1.410156 19.96875 1.410156 C 22.300781 1.410156 22.980469 1.3125 24.292969 1.164062 C 26.089844 1.019531 27.742188 0.535156 29.148438 -0.242188 C 32.597656 -1.941406 34.929688 -5.246094 34.929688 -9.035156 L 34.929688 -45.28125 C 33.132812 -45.28125 31.433594 -44.84375 29.925781 -44.113281 Z M 29.925781 -44.113281 "/></g></g></g><g fill="#000000" fill-opacity="1"><g transform="translate(75.154849, 61.144839)"><g><path d="M 9.570312 -45.425781 C 4.128906 -45.425781 -0.242188 -41.394531 -0.242188 -35.515625 L 12.4375 -35.515625 L 12.4375 0 C 18.316406 0 23.078125 -4.371094 23.078125 -9.765625 L 23.078125 -35.515625 L 25.945312 -35.515625 C 31.386719 -35.515625 35.757812 -39.546875 35.757812 -45.425781 Z M 9.570312 -45.425781 "/></g></g></g><g fill="#000000" fill-opacity="1"><g transform="translate(110.764746, 61.144839)"><g><path d="M 35.027344 -41.585938 C 34.738281 -42.21875 34.25 -42.851562 33.570312 -43.433594 C 31.726562 -45.230469 29.148438 -46.105469 26.378906 -46.347656 C 24.730469 -46.496094 19.917969 -46.589844 18.074219 -46.589844 C 16.082031 -46.589844 14.285156 -46.496094 12.535156 -46.347656 C 6.996094 -45.8125 2.429688 -41.925781 2.429688 -36.484375 L 2.429688 -9.183594 C 2.429688 -7.335938 2.964844 -5.585938 3.886719 -4.128906 C 4.179688 -3.449219 4.664062 -2.867188 5.34375 -2.285156 C 7.191406 -0.484375 9.765625 0.386719 12.535156 0.632812 C 14.1875 0.777344 15.933594 0.875 17.832031 0.875 C 19.773438 0.875 24.632812 0.824219 26.378906 0.632812 C 31.917969 0.144531 36.484375 -3.742188 36.484375 -9.183594 L 36.484375 -36.484375 C 36.484375 -38.332031 35.953125 -40.082031 35.027344 -41.585938 Z M 26.378906 -12.292969 C 26.136719 -10.785156 25.167969 -9.714844 23.5625 -9.714844 L 15.351562 -9.714844 C 13.796875 -9.714844 12.777344 -10.785156 12.535156 -12.292969 L 12.535156 -33.667969 C 12.777344 -35.175781 13.75 -36.242188 15.351562 -36.242188 L 23.5625 -36.242188 C 25.167969 -36.242188 26.136719 -35.175781 26.378906 -33.621094 Z M 26.378906 -12.292969 "/></g></g></g><g fill="#000000" fill-opacity="1"><g transform="translate(154.014383, 40.750745)"><g><path d="M 15.273438 -8.398438 C 15.945312 -8.746094 16.53125 -9.148438 17.039062 -9.628906 C 17.898438 -10.40625 18.539062 -11.371094 19.019531 -12.519531 C 19.5 -13.667969 19.714844 -15.007812 19.714844 -16.503906 L 19.714844 -16.585938 C 19.714844 -18.003906 19.5 -19.261719 19.074219 -20.382812 C 18.644531 -21.507812 18.03125 -22.445312 17.226562 -23.21875 C 16.453125 -23.996094 15.460938 -24.558594 14.339844 -24.957031 C 13.214844 -25.359375 11.929688 -25.574219 10.566406 -25.574219 L 6.875 -25.574219 C 4.121094 -25.574219 1.097656 -22.980469 1.097656 -19.769531 L 1.097656 0 C 4.46875 0 7.222656 -3.15625 7.222656 -7.089844 L 7.222656 -7.304688 L 9.738281 -7.304688 L 13.054688 -2.355469 C 14.738281 0.160156 17.761719 0.75 20.277344 -0.9375 Z M 7.222656 -19.660156 L 10.085938 -19.660156 C 11.207031 -19.660156 12.066406 -19.367188 12.679688 -18.777344 C 13.296875 -18.21875 13.617188 -17.363281 13.617188 -16.265625 L 13.617188 -16.183594 C 13.617188 -15.167969 13.296875 -14.367188 12.679688 -13.75 C 12.066406 -13.160156 11.207031 -12.839844 10.113281 -12.839844 L 7.222656 -12.839844 Z M 7.222656 -19.660156 "/></g></g></g><g fill="#000000" fill-opacity="1"><g transform="translate(175.200209, 40.750745)"><g><path d="M 16.480469 -24.289062 C 14.578125 -23.378906 13.269531 -21.5625 13.269531 -19.449219 L 13.269531 -5.9375 C 13.269531 -5.164062 12.652344 -4.496094 11.851562 -4.46875 C 11.851562 -4.46875 11.851562 -4.46875 11.824219 -4.46875 L 8.773438 -4.46875 C 8.347656 -4.46875 8 -4.601562 7.757812 -4.84375 C 7.464844 -5.109375 7.304688 -5.484375 7.304688 -5.886719 L 7.304688 -19.449219 C 7.304688 -21.507812 6.046875 -23.328125 4.199219 -24.238281 C 3.34375 -24.664062 2.378906 -24.933594 1.335938 -24.933594 L 1.335938 -4.976562 C 1.335938 -3.558594 1.925781 -2.246094 2.914062 -1.285156 C 3.023438 -1.175781 3.128906 -1.070312 3.261719 -0.964844 C 4.253906 0.0273438 5.671875 0.507812 7.222656 0.640625 C 8.105469 0.722656 9.09375 0.777344 10.113281 0.777344 C 10.351562 0.777344 10.648438 0.777344 10.996094 0.777344 C 12.277344 0.777344 12.652344 0.722656 13.375 0.640625 C 14.367188 0.5625 15.273438 0.292969 16.050781 -0.132812 C 17.949219 -1.070312 19.234375 -2.890625 19.234375 -4.976562 L 19.234375 -24.933594 C 18.246094 -24.933594 17.308594 -24.691406 16.480469 -24.289062 Z M 16.480469 -24.289062 "/></g></g></g><g fill="#000000" fill-opacity="1"><g transform="translate(195.797533, 40.750745)"><g><path d="M 16.960938 -19.714844 L 16.960938 -10.511719 L 6.792969 -25.171875 C 3.773438 -25.171875 1.335938 -22.710938 1.335938 -19.714844 L 1.335938 0.132812 C 4.359375 0.132812 6.792969 -2.300781 6.792969 -5.324219 L 6.792969 -15.460938 L 16.960938 -1.847656 L 16.960938 0.132812 C 19.984375 0.132812 22.550781 -2.328125 22.550781 -5.351562 L 22.550781 -25.171875 C 19.527344 -25.171875 16.960938 -22.710938 16.960938 -19.714844 Z M 16.960938 -19.714844 "/></g></g></g></svg>