<svg xmlns="http://www.w3.org/2000/svg" xmlns:xlink="http://www.w3.org/1999/xlink" width="500" zoomAndPan="magnify" viewBox="0 0 375 374.999991" height="500" preserveAspectRatio="xMidYMid meet" version="1.0"><defs><clipPath id="2eb7dabf87"><path d="M 19.507812 19.507812 L 355.507812 19.507812 L 355.507812 355.507812 L 19.507812 355.507812 Z M 19.507812 19.507812 " clip-rule="nonzero"/></clipPath><clipPath id="079c8c1af3"><path d="M 53.527344 58.15625 L 321.277344 58.15625 L 321.277344 316.90625 L 53.527344 316.90625 Z M 53.527344 58.15625 " clip-rule="nonzero"/></clipPath></defs><g clip-path="url(#2eb7dabf87)"><path fill="#000000" d="M 103.550781 19.46875 C 57.160156 19.46875 19.550781 57.078125 19.550781 103.46875 L 19.550781 271.46875 C 19.550781 317.855469 57.160156 355.46875 103.550781 355.46875 L 271.550781 355.46875 C 317.9375 355.46875 355.550781 317.855469 355.550781 271.46875 L 355.550781 103.46875 C 355.550781 57.078125 317.9375 19.46875 271.550781 19.46875 Z M 103.550781 19.46875 " fill-opacity="1" fill-rule="nonzero"/></g><g clip-path="url(#079c8c1af3)"><path fill="#ffbf00" d="M 116.40625 291.523438 L 116.40625 291.542969 C 116.40625 298.601562 113.828125 304.960938 109.667969 309.539062 C 105.613281 314.003906 100.027344 316.765625 93.886719 316.765625 C 87.746094 316.765625 82.164062 314.003906 78.105469 309.539062 C 73.941406 304.960938 71.371094 298.601562 71.371094 291.542969 C 71.371094 291.539062 71.371094 291.53125 71.371094 291.523438 C 71.371094 290.492188 72.222656 289.65625 73.253906 289.65625 L 114.542969 289.65625 C 115.574219 289.65625 116.40625 290.492188 116.40625 291.523438 Z M 306.105469 296.167969 L 292.835938 296.277344 L 265.550781 296.164062 C 264.574219 296.15625 263.835938 297.066406 264.066406 298.019531 C 265.117188 302.460938 267.210938 306.417969 270.058594 309.539062 C 274.113281 314.003906 279.699219 316.765625 285.839844 316.765625 C 291.980469 316.765625 297.5625 314.003906 301.621094 309.539062 C 304.457031 306.417969 306.5625 302.460938 307.613281 298.027344 C 307.828125 297.074219 307.082031 296.164062 306.105469 296.167969 Z M 285.832031 242.558594 C 288.035156 242.558594 290.191406 242.734375 292.304688 243.0625 C 294.535156 243.410156 296.542969 241.664062 296.542969 239.402344 L 296.542969 193.570312 C 296.542969 192.28125 296.089844 191.128906 295.351562 190.320312 C 294.722656 189.628906 293.878906 189.191406 292.984375 189.191406 L 244.542969 189.191406 C 242.5 189.191406 240.84375 190.847656 240.84375 192.890625 L 240.84375 261.070312 C 240.84375 263.617188 238.785156 265.683594 236.238281 265.683594 L 57.222656 265.683594 C 55.179688 265.6875 53.527344 267.34375 53.527344 269.394531 L 53.527344 276.070312 C 53.527344 277.355469 53.984375 278.507812 54.71875 279.320312 C 55.347656 280.011719 56.191406 280.445312 57.089844 280.445312 L 239.125 280.445312 C 240.8125 280.445312 242.265625 279.300781 242.699219 277.671875 C 244.828125 269.796875 248.734375 262.746094 253.894531 257.078125 C 262.050781 248.101562 273.339844 242.558594 285.832031 242.558594 Z M 321.210938 285.808594 C 320.074219 277.042969 316.371094 269.199219 310.964844 263.261719 C 304.519531 256.164062 295.628906 251.777344 285.832031 251.777344 C 276.035156 251.777344 267.152344 256.164062 260.699219 263.261719 C 255.355469 269.140625 251.664062 276.875 250.488281 285.527344 C 250.480469 285.621094 250.46875 285.707031 250.453125 285.792969 C 250.453125 285.800781 250.453125 285.800781 250.453125 285.808594 C 250.375 286.40625 250.847656 286.933594 251.457031 286.933594 L 320.21875 286.933594 C 320.816406 286.933594 321.292969 286.40625 321.210938 285.808594 Z M 56.574219 256.472656 L 116.035156 256.472656 C 117.714844 256.472656 119.082031 255.105469 119.082031 253.425781 L 119.082031 227.332031 C 119.082031 226.484375 118.726562 225.664062 118.097656 225.089844 L 94.027344 202.890625 C 93.042969 201.988281 92.542969 200.746094 92.542969 199.507812 L 92.542969 192.128906 C 92.542969 190.445312 91.175781 189.078125 89.496094 189.078125 L 56.574219 189.078125 C 54.894531 189.078125 53.527344 190.445312 53.527344 192.128906 L 53.527344 253.417969 C 53.527344 255.105469 54.894531 256.472656 56.574219 256.472656 Z M 56.761719 179.863281 L 89.316406 179.863281 C 91.101562 179.863281 92.546875 178.417969 92.546875 176.625 L 92.542969 145.402344 C 92.542969 143.613281 91.097656 142.164062 89.308594 142.164062 L 56.761719 142.164062 C 54.972656 142.164062 53.527344 143.613281 53.527344 145.402344 L 53.527344 176.625 C 53.527344 178.417969 54.972656 179.863281 56.761719 179.863281 Z M 57.578125 132.964844 L 71.511719 133.03125 L 88.484375 132.964844 C 90.726562 132.957031 92.542969 131.132812 92.535156 128.890625 L 92.535156 112.691406 C 92.535156 110.144531 94.597656 108.078125 97.140625 108.078125 L 274.722656 108.078125 C 276.433594 108.078125 278.019531 107.28125 279.183594 105.996094 C 280.457031 104.59375 281.246094 102.636719 281.246094 100.445312 C 281.246094 98.261719 280.457031 96.296875 279.183594 94.898438 C 278.019531 93.617188 276.4375 92.8125 274.722656 92.8125 L 78.863281 92.8125 C 71.980469 92.8125 65.691406 95.933594 61.121094 100.96875 C 56.433594 106.128906 53.527344 113.265625 53.527344 121.140625 L 53.527344 128.894531 C 53.527344 131.132812 55.335938 132.957031 57.578125 132.964844 Z M 131.8125 256.472656 L 142.113281 256.472656 C 144.054688 256.472656 145.628906 254.898438 145.628906 252.957031 L 145.628906 227.542969 C 145.628906 226.554688 145.222656 225.617188 144.5 224.953125 L 120.796875 203.097656 C 119.753906 202.253906 119.082031 200.960938 119.082031 199.515625 L 119.082031 120.820312 C 119.082031 118.875 117.507812 117.300781 115.566406 117.300781 L 105.25 117.300781 C 103.316406 117.300781 101.742188 118.871094 101.734375 120.8125 L 101.707031 130.523438 L 101.742188 137.5625 L 101.742188 195.960938 C 101.742188 196.945312 102.148438 197.886719 102.871094 198.546875 L 126.574219 220.398438 C 127.621094 221.242188 128.289062 222.535156 128.289062 223.984375 L 128.289062 252.949219 C 128.296875 254.898438 129.867188 256.472656 131.8125 256.472656 Z M 192.679688 219.378906 C 193.945312 219.378906 194.96875 218.351562 194.96875 217.085938 L 194.96875 180.902344 C 194.96875 179.5625 194.492188 178.363281 193.722656 177.519531 C 193.058594 176.789062 192.175781 176.332031 191.234375 176.332031 L 189.082031 176.332031 C 187.816406 176.332031 186.792969 177.355469 186.792969 178.625 L 186.792969 217.085938 C 186.792969 218.351562 187.816406 219.378906 189.082031 219.378906 Z M 186.785156 253.800781 C 186.785156 255.273438 187.980469 256.46875 189.453125 256.46875 L 206.4375 256.46875 C 207.910156 256.46875 209.101562 255.273438 209.101562 253.800781 L 209.101562 231.261719 C 209.101562 229.785156 207.910156 228.59375 206.4375 228.59375 L 189.453125 228.59375 C 187.980469 228.59375 186.785156 229.785156 186.785156 231.261719 Z M 249.863281 163.792969 C 245.621094 160.40625 242.089844 155.710938 240.304688 150.53125 L 229.582031 119.414062 C 229.148438 118.152344 227.964844 117.300781 226.632812 117.300781 L 223.054688 117.300781 C 220.921875 117.300781 219.414062 119.390625 220.089844 121.417969 L 238.832031 177.839844 C 239.253906 179.121094 240.449219 179.984375 241.796875 179.984375 L 287.90625 179.984375 C 290.042969 179.984375 291.550781 177.894531 290.875 175.871094 L 289.453125 171.585938 C 289.03125 170.308594 287.835938 169.441406 286.488281 169.441406 L 264.472656 169.441406 C 259.453125 169.441406 254.230469 167.277344 249.863281 163.792969 Z M 233.679688 83.605469 L 241.589844 83.605469 C 244.695312 83.605469 246.777344 80.40625 245.527344 77.558594 L 238.152344 60.851562 C 237.464844 59.289062 235.917969 58.285156 234.21875 58.285156 L 233.679688 58.285156 C 231.304688 58.285156 229.375 60.214844 229.375 62.59375 L 229.375 79.300781 C 229.375 81.679688 231.304688 83.605469 233.679688 83.605469 Z M 171.730469 117.300781 C 170.4375 117.300781 169.390625 118.347656 169.390625 119.640625 L 169.390625 254.128906 C 169.390625 255.421875 170.4375 256.46875 171.730469 256.46875 L 176.261719 256.46875 C 177.554688 256.46875 178.597656 255.421875 178.597656 254.128906 L 178.597656 119.640625 C 178.597656 118.347656 177.554688 117.300781 176.261719 117.300781 Z M 171.730469 117.300781 " fill-opacity="1" fill-rule="evenodd"/></g></svg>