<svg xmlns="http://www.w3.org/2000/svg" xmlns:xlink="http://www.w3.org/1999/xlink" width="500" zoomAndPan="magnify" viewBox="0 0 375 374.999991" height="500" preserveAspectRatio="xMidYMid meet" version="1.0"><defs><clipPath id="81e8dcb912"><path d="M 7.167969 11.304688 L 365.761719 11.304688 L 365.761719 367 L 7.167969 367 Z M 7.167969 11.304688 " clip-rule="nonzero"/></clipPath><clipPath id="fd16eb2467"><path d="M 24.417969 11.304688 L 347.824219 11.304688 C 352.398438 11.304688 356.785156 13.121094 360.019531 16.359375 C 363.257812 19.59375 365.074219 23.980469 365.074219 28.554688 L 365.074219 349.203125 C 365.074219 353.777344 363.257812 358.164062 360.019531 361.398438 C 356.785156 364.636719 352.398438 366.453125 347.824219 366.453125 L 24.417969 366.453125 C 19.84375 366.453125 15.457031 364.636719 12.222656 361.398438 C 8.988281 358.164062 7.167969 353.777344 7.167969 349.203125 L 7.167969 28.554688 C 7.167969 23.980469 8.988281 19.59375 12.222656 16.359375 C 15.457031 13.121094 19.84375 11.304688 24.417969 11.304688 " clip-rule="nonzero"/></clipPath><clipPath id="8bee5fa9b1"><path d="M 21.972656 18 L 352.722656 18 L 352.722656 337.378906 L 21.972656 337.378906 Z M 21.972656 18 " clip-rule="nonzero"/></clipPath></defs><g clip-path="url(#81e8dcb912)"><g clip-path="url(#fd16eb2467)"><path fill="#000000" d="M 7.167969 11.304688 L 365.761719 11.304688 L 365.761719 366.382812 L 7.167969 366.382812 Z M 7.167969 11.304688 " fill-opacity="1" fill-rule="nonzero"/></g></g><g clip-path="url(#8bee5fa9b1)"><path fill="#ffbf00" d="M 99.640625 306.039062 L 99.640625 306.0625 C 99.640625 314.777344 96.457031 322.628906 91.320312 328.28125 C 86.308594 333.792969 79.410156 337.203125 71.828125 337.203125 C 64.242188 337.203125 57.34375 333.792969 52.332031 328.28125 C 47.1875 322.628906 44.011719 314.777344 44.011719 306.0625 C 44.011719 306.054688 44.011719 306.046875 44.011719 306.039062 C 44.011719 304.761719 45.0625 303.730469 46.335938 303.730469 L 97.34375 303.730469 C 98.617188 303.730469 99.640625 304.761719 99.640625 306.039062 Z M 333.980469 311.773438 L 317.585938 311.90625 L 283.882812 311.765625 C 282.675781 311.757812 281.765625 312.882812 282.046875 314.058594 C 283.34375 319.542969 285.933594 324.425781 289.449219 328.28125 C 294.460938 333.792969 301.359375 337.203125 308.945312 337.203125 C 316.527344 337.203125 323.425781 333.792969 328.4375 328.28125 C 331.945312 324.425781 334.542969 319.542969 335.839844 314.066406 C 336.105469 312.890625 335.1875 311.765625 333.980469 311.773438 Z M 308.933594 245.578125 C 311.65625 245.578125 314.320312 245.792969 316.933594 246.199219 C 319.6875 246.628906 322.167969 244.46875 322.167969 241.679688 L 322.167969 185.085938 C 322.167969 183.496094 321.605469 182.074219 320.695312 181.070312 C 319.917969 180.21875 318.875 179.679688 317.769531 179.679688 L 257.929688 179.679688 C 255.40625 179.679688 253.363281 181.726562 253.363281 184.25 L 253.363281 268.433594 C 253.363281 271.578125 250.816406 274.128906 247.671875 274.128906 L 26.535156 274.128906 C 24.015625 274.136719 21.972656 276.179688 21.972656 278.710938 L 21.972656 286.953125 C 21.972656 288.542969 22.535156 289.96875 23.441406 290.96875 C 24.21875 291.820312 25.261719 292.359375 26.371094 292.359375 L 251.238281 292.359375 C 253.320312 292.359375 255.117188 290.945312 255.65625 288.933594 C 258.285156 279.207031 263.105469 270.503906 269.484375 263.503906 C 279.558594 252.421875 293.5 245.578125 308.933594 245.578125 Z M 352.636719 298.980469 C 351.230469 288.15625 346.660156 278.472656 339.984375 271.140625 C 332.019531 262.375 321.035156 256.957031 308.933594 256.957031 C 296.835938 256.957031 285.859375 262.375 277.886719 271.140625 C 271.285156 278.398438 266.730469 287.949219 265.273438 298.632812 C 265.265625 298.746094 265.25 298.855469 265.230469 298.960938 C 265.230469 298.96875 265.230469 298.96875 265.230469 298.980469 C 265.132812 299.714844 265.71875 300.367188 266.472656 300.367188 L 351.414062 300.367188 C 352.148438 300.371094 352.738281 299.714844 352.636719 298.980469 Z M 25.734375 262.757812 L 99.1875 262.757812 C 101.261719 262.757812 102.949219 261.070312 102.949219 258.992188 L 102.949219 226.777344 C 102.949219 225.726562 102.511719 224.714844 101.734375 224.003906 L 72 196.59375 C 70.785156 195.476562 70.164062 193.949219 70.164062 192.417969 L 70.164062 183.304688 C 70.164062 181.226562 68.476562 179.539062 66.402344 179.539062 L 25.734375 179.539062 C 23.65625 179.539062 21.972656 181.226562 21.972656 183.304688 L 21.972656 258.984375 C 21.972656 261.070312 23.65625 262.757812 25.734375 262.757812 Z M 25.964844 168.160156 L 66.179688 168.160156 C 68.386719 168.160156 70.171875 166.375 70.171875 164.164062 L 70.164062 125.609375 C 70.164062 123.398438 68.378906 121.613281 66.171875 121.613281 L 25.964844 121.613281 C 23.757812 121.613281 21.972656 123.398438 21.972656 125.609375 L 21.972656 164.164062 C 21.972656 166.375 23.757812 168.160156 25.964844 168.160156 Z M 26.976562 110.25 L 44.1875 110.332031 L 65.152344 110.25 C 67.921875 110.242188 70.164062 107.992188 70.15625 105.21875 L 70.15625 85.21875 C 70.15625 82.074219 72.703125 79.523438 75.847656 79.523438 L 295.214844 79.523438 C 297.324219 79.523438 299.28125 78.539062 300.722656 76.949219 C 302.292969 75.21875 303.269531 72.804688 303.269531 70.097656 C 303.269531 67.398438 302.292969 64.976562 300.722656 63.246094 C 299.28125 61.664062 297.332031 60.671875 295.214844 60.671875 L 53.269531 60.671875 C 44.765625 60.671875 37 64.527344 31.351562 70.742188 C 25.558594 77.117188 21.972656 85.929688 21.972656 95.652344 L 21.972656 105.226562 C 21.972656 107.992188 24.203125 110.242188 26.976562 110.25 Z M 118.671875 262.757812 L 131.402344 262.757812 C 133.800781 262.757812 135.746094 260.8125 135.746094 258.414062 L 135.746094 227.03125 C 135.746094 225.816406 135.238281 224.65625 134.347656 223.839844 L 105.066406 196.851562 C 103.777344 195.808594 102.949219 194.210938 102.949219 192.425781 L 102.949219 95.253906 C 102.949219 92.855469 101.007812 90.910156 98.609375 90.910156 L 85.863281 90.910156 C 83.472656 90.910156 81.527344 92.847656 81.519531 95.246094 L 81.488281 107.238281 L 81.527344 115.925781 L 81.527344 188.039062 C 81.527344 189.253906 82.035156 190.414062 82.925781 191.234375 L 112.207031 218.210938 C 113.496094 219.253906 114.324219 220.851562 114.324219 222.636719 L 114.324219 258.40625 C 114.332031 260.8125 116.273438 262.757812 118.671875 262.757812 Z M 193.863281 216.953125 C 195.425781 216.953125 196.691406 215.6875 196.691406 214.121094 L 196.691406 169.445312 C 196.691406 167.789062 196.105469 166.308594 195.152344 165.265625 C 194.335938 164.363281 193.242188 163.800781 192.078125 163.800781 L 189.421875 163.800781 C 187.859375 163.800781 186.59375 165.066406 186.59375 166.628906 L 186.59375 214.121094 C 186.59375 215.6875 187.859375 216.953125 189.421875 216.953125 Z M 186.585938 259.457031 C 186.585938 261.277344 188.058594 262.75 189.875 262.75 L 210.859375 262.75 C 212.679688 262.75 214.152344 261.277344 214.152344 259.457031 L 214.152344 231.625 C 214.152344 229.804688 212.679688 228.332031 210.859375 228.332031 L 189.875 228.332031 C 188.058594 228.332031 186.585938 229.804688 186.585938 231.625 Z M 264.503906 148.316406 C 259.261719 144.136719 254.902344 138.335938 252.695312 131.941406 L 239.453125 93.515625 C 238.914062 91.960938 237.449219 90.910156 235.804688 90.910156 L 231.386719 90.910156 C 228.75 90.910156 226.890625 93.492188 227.722656 95.992188 L 250.875 165.664062 C 251.394531 167.242188 252.875 168.308594 254.539062 168.308594 L 311.5 168.308594 C 314.136719 168.308594 316 165.726562 315.164062 163.230469 L 313.410156 157.941406 C 312.886719 156.359375 311.40625 155.292969 309.746094 155.292969 L 282.550781 155.292969 C 276.347656 155.292969 269.898438 152.621094 264.503906 148.316406 Z M 244.515625 49.300781 L 254.28125 49.300781 C 258.121094 49.300781 260.691406 45.355469 259.144531 41.835938 L 250.039062 21.207031 C 249.1875 19.277344 247.277344 18.039062 245.175781 18.039062 L 244.515625 18.039062 C 241.578125 18.039062 239.195312 20.421875 239.195312 23.359375 L 239.195312 43.988281 C 239.195312 46.925781 241.578125 49.300781 244.515625 49.300781 Z M 167.984375 90.910156 C 166.386719 90.910156 165.097656 92.203125 165.097656 93.796875 L 165.097656 259.859375 C 165.097656 261.457031 166.386719 262.75 167.984375 262.75 L 173.582031 262.75 C 175.179688 262.75 176.46875 261.457031 176.46875 259.859375 L 176.46875 93.796875 C 176.46875 92.203125 175.179688 90.910156 173.582031 90.910156 Z M 167.984375 90.910156 " fill-opacity="1" fill-rule="evenodd"/></g></svg>