<!DOCTYPE svg PUBLIC "-//W3C//DTD SVG 1.1//EN" "http://www.w3.org/Graphics/SVG/1.1/DTD/svg11.dtd">
<!-- Uploaded to: SVG Repo, www.svgrepo.com, Transformed by: SVG Repo Mixer Tools -->
<svg version="1.1" id="Layer_1" xmlns="http://www.w3.org/2000/svg" xmlns:xlink="http://www.w3.org/1999/xlink" viewBox="-50.9 -50.9 610.80 610.80" xml:space="preserve" width="800px" height="800px" fill="#000000">
<g id="SVGRepo_bgCarrier" stroke-width="0">
<rect x="-50.9" y="-50.9" width="610.80" height="610.80" rx="91.61999999999999" fill="#09769a" strokewidth="0"/>
</g>
<g id="SVGRepo_iconCarrier"> <circle style="fill:#078eb0;" cx="254.5" cy="254.5" r="254.5"/> <path style="fill:#6EB1E1;" d="M156.2,118.7c0,0-49.7,152.4-48.3,182.8c1.4,30.4,55.2,82.8,55.2,82.8h287V118.7H156.2z"/> <g> <rect x="186.2" y="118.7" style="fill:#F1F3F7;" width="103.9" height="238.3"/> <polygon style="fill:#F1F3F7;" points="391.3,338.2 310,338.2 310,118.7 414,118.7 "/> </g> <circle style="fill:#414753;" cx="102.2" cy="389.3" r="41.2"/> <circle style="fill:#FCFCFD;" cx="102.2" cy="389.3" r="22.4"/> <circle style="fill:#414753;" cx="383.4" cy="389.3" r="41.2"/> <circle style="fill:#FCFCFD;" cx="383.4" cy="389.3" r="22.4"/> <path style="fill:#4485C5;" d="M108.6,306.4c-29.8,4.5-53.1,28.5-56.5,58.6H145C130.6,348.5,112.2,324.6,108.6,306.4z"/> <path style="fill:#414753;" d="M159.4,129h-6.5c-6.7,21-22.2,70.4-33.1,111.8h30.6c6.6,0,12.1-5.1,12.8-11.9l9-85.1 C173,135.9,167.1,129,159.4,129z"/> <polygon style="fill:#6EB1E1;" points="450.1,134.5 450.1,109.4 139.9,78.5 139.9,118.7 "/> <rect x="220.8" y="295.6" style="fill:#DEDEDF;" width="69.3" height="61.4"/> <polygon style="fill:#414753;" points="290.1,214.3 268.1,214.3 268.1,279.3 206.1,279.3 206.1,295.6 290.1,295.6 "/> <polygon style="fill:#BDBDBE;" points="357.9,295.6 345.2,338.2 391.3,338.2 395.7,295.6 "/> <polygon style="fill:#414753;" points="397.4,279.3 357.9,279.3 357.9,295.6 395.7,295.6 "/> <path style="fill:#F0582F;" d="M102.2,248.4v51.5c14.1-0.1,25.6-11.6,25.6-25.7C127.8,260,116.3,248.6,102.2,248.4z"/> <rect x="93.2" y="248.4" style="fill:#4F5565;" width="9" height="51.5"/> <path style="fill:#FBD303;" d="M107.9,118.7c0,0,16.1-18.4,46.8-18.4s295.4,22.9,295.4,22.9v11.3L107.9,118.7z"/> </g>
</svg>