<svg xmlns="http://www.w3.org/2000/svg" xmlns:xlink="http://www.w3.org/1999/xlink" width="414" zoomAndPan="magnify" viewBox="0 0 310.5 671.999985" height="896" preserveAspectRatio="xMidYMid meet" version="1.0"><defs><clipPath id="e2a71e7c17"><path d="M 0 0.539062 L 310 0.539062 L 310 671.457031 L 0 671.457031 Z M 0 0.539062 " clip-rule="nonzero"/></clipPath><clipPath id="cf805a1956"><path d="M 0 0.539062 L 310 0.539062 L 310 453 L 0 453 Z M 0 0.539062 " clip-rule="nonzero"/></clipPath><clipPath id="9f6b4a005a"><path d="M 329.539062 466.871094 L -58.574219 437.144531 L -19.226562 -76.597656 L 368.886719 -46.875 Z M 329.539062 466.871094 " clip-rule="nonzero"/></clipPath><clipPath id="d47bc71d59"><path d="M 329.539062 466.871094 L -58.574219 437.144531 L -19.226562 -76.597656 L 368.886719 -46.875 Z M 329.539062 466.871094 " clip-rule="nonzero"/></clipPath><clipPath id="5ef268d059"><path d="M 0 16 L 310 16 L 310 410 L 0 410 Z M 0 16 " clip-rule="nonzero"/></clipPath><clipPath id="b30117a1c6"><path d="M -108.957031 20.132812 L 351.320312 -27.644531 L 396.617188 408.761719 L -63.660156 456.539062 Z M -108.957031 20.132812 " clip-rule="nonzero"/></clipPath><clipPath id="a76a9b85e0"><path d="M -108.957031 20.132812 L 351.320312 -27.644531 L 396.617188 408.761719 L -63.660156 456.539062 Z M -108.957031 20.132812 " clip-rule="nonzero"/></clipPath></defs><g clip-path="url(#e2a71e7c17)"><path fill="#ffffff" d="M 0 0.539062 L 310.5 0.539062 L 310.5 680.039062 L 0 680.039062 Z M 0 0.539062 " fill-opacity="1" fill-rule="nonzero"/><path fill="#ffffff" d="M 0 0.539062 L 310.5 0.539062 L 310.5 672.539062 L 0 672.539062 Z M 0 0.539062 " fill-opacity="1" fill-rule="nonzero"/><path fill="#ffffff" d="M 0 0.539062 L 310.5 0.539062 L 310.5 672.539062 L 0 672.539062 Z M 0 0.539062 " fill-opacity="1" fill-rule="nonzero"/></g><g clip-path="url(#cf805a1956)"><g clip-path="url(#9f6b4a005a)"><g clip-path="url(#d47bc71d59)"><path fill="#ffc700" d="M -19.070312 -76.585938 L 368.726562 -46.886719 L 344.222656 273.078125 C 336.023438 380.144531 242.613281 460.214844 135.484375 452.007812 C 28.351562 443.804688 -51.773438 350.441406 -43.574219 243.378906 Z M -19.070312 -76.585938 " fill-opacity="1" fill-rule="nonzero"/></g></g></g><g clip-path="url(#5ef268d059)"><g clip-path="url(#b30117a1c6)"><g clip-path="url(#a76a9b85e0)"><path fill="#ffcd1c" d="M 256.605469 60.8125 C 39.5 82.359375 -66.46875 195.835938 -54.652344 406.75 C -54.503906 409.398438 -58.34375 409.945312 -58.984375 407.367188 C -75.785156 339.800781 -80.398438 277.113281 -68.644531 220.984375 C -29.847656 35.730469 186.667969 -10.519531 347.917969 30.097656 C 355.953125 32.125 358.558594 41.957031 352.65625 47.777344 C 241.535156 157.324219 285.503906 420.261719 -21.367188 336.183594 C 9.832031 188.132812 95.0625 89.554688 256.605469 60.8125 " fill-opacity="1" fill-rule="evenodd"/></g></g></g></svg>